<svg width="185" height="212" viewBox="0 0 185 212" fill="none" xmlns="http://www.w3.org/2000/svg">
<g clip-path="url(#clip0_121_201)">
<path d="M77.5221 88.3769C78.462 89.2791 78.9225 90.2776 79.5547 92.0526C80.6665 95.1807 81.5069 98.3988 82.0666 101.671C83.1725 111.823 80.4066 122.018 74.3215 130.219C77.249 131.474 79.9863 133.132 82.4538 135.146C86.3454 138.337 89.4948 142.337 91.6829 146.868C95.8514 139.681 101.947 133.802 109.281 129.896C103.016 123.409 101.76 117.908 101.433 115.493C101.046 112.721 101.059 108.166 101.063 106.678C101.063 104.417 101.08 102.642 101.375 100.342C101.708 97.7573 102.311 95.2148 103.175 92.756C106.022 87.6903 108.808 86.2062 110.838 85.7959C112.004 85.5594 112.636 85.7352 116.241 85.4003C118.198 85.2182 120.174 85.034 121.857 84.6844C126.9 83.6378 130.439 80.8726 132.114 79.5392C134.464 77.6593 136.497 75.4147 138.136 72.8911C132.991 76.952 128.449 78.344 125.158 78.8338C117.413 79.9872 111.971 76.8703 105.448 80.2425C103.572 81.2268 101.904 82.5629 100.533 84.1778C101.224 82.0089 102.111 79.9071 103.181 77.8981C104.347 75.7065 107.592 69.7679 114.194 65.2109C116.762 63.438 116.27 64.3401 120.7 61.6315C125.478 58.7009 128.702 56.6935 131.258 53.0282C131.999 51.9649 133.818 49.3002 134.465 45.7542C136.066 36.9626 129.2 29.655 128.128 28.5477C128.769 30.26 131.331 37.6701 127.974 44.5024C127.258 45.9572 126.314 47.8788 124.298 49.5869C122.173 51.385 120.321 51.7137 117.024 54.2779C116.207 54.9147 115.423 55.5938 114.677 56.3125C116.226 52.5447 116.98 48.5026 115.988 44.4669C114.629 38.88 110.868 37.0484 110.219 31.9074C109.829 28.8219 110.65 25.2446 113.503 21.1146C111.348 21.9599 109.516 23.4657 108.27 25.4162C107.408 26.7936 106.872 28.3492 106.702 29.9648C105.001 29.3955 103.435 28.486 102.097 27.2918C97.9103 23.5239 97.6005 18.2238 97.5608 16.9679C96.4158 22.9252 97.4142 26.9401 98.4211 29.4038C101.255 36.3304 106.775 37.377 108.199 44.3413C109.036 48.467 107.916 52.0674 107.495 53.4134C106.363 57.0326 104.452 59.4399 101.249 63.461C98.6158 66.7767 97.4582 67.5512 95.0593 70.9967C93.8566 72.7275 92.7599 74.5296 91.775 76.3931C89.7381 73.0634 87.5186 69.8488 85.1269 66.7641C80.2538 60.4844 78.9309 60.2437 77.3819 56.8317C75.2991 52.2391 74.242 45.076 77.4593 39.9392C78.8848 37.6617 79.8875 37.804 82.5438 33.9169C84.0823 31.6646 85.5979 29.4436 86.3765 26.2535C86.7826 24.5789 87.3269 21.2465 86.14 16.9448C85.847 21.2255 84.2875 23.9928 83.3246 25.3932C81.9828 27.342 79.2532 30.3312 77.6938 29.6927C76.6011 29.2469 77.0658 27.4194 75.8098 25.2362C74.5539 23.0529 72.4041 21.9079 70.5767 21.2465C71.9537 23.6367 72.9262 26.2381 73.4549 28.9454C73.8861 31.1371 74.242 32.9477 73.6894 35.0452C72.827 38.3106 70.5244 39.3593 68.9963 41.4589C67.3217 43.7719 66.1495 47.9479 68.8393 56.0844C67.1122 55.3432 65.4397 54.4807 63.8344 53.5034C61.1843 51.8874 57.9628 49.4948 56.4054 47.6423C51.1618 41.3919 55.139 29.7618 55.6226 28.4012C54.7999 29.4101 46.4772 39.914 50.1487 49.6749C51.9782 54.5437 56.709 59.0065 61.0922 61.397C63.7632 62.8518 65.936 63.3333 69.3878 65.9457C70.0157 66.4229 72.1906 68.0703 75.1756 71.656C78.3714 75.519 81.101 79.7451 83.3078 84.2469C80.8067 82.1522 77.9071 80.5856 74.7841 79.6418C68.4374 77.7579 64.6884 79.7213 58.438 78.8589C55.0888 78.3963 50.3497 77.0336 44.9072 72.8366C49.5333 79.8867 54.2117 82.5012 57.7346 83.552C66.0051 86.0199 70.9514 86.2899 70.9514 86.2899C72.6448 86.3569 75.4665 86.403 77.5221 88.3769Z" fill="#DBAA16"/>
<path d="M104.6 0C103.014 1.3334 99.4886 4.70981 98.9486 9.77546C98.5802 13.2523 99.5473 18.1882 101.695 18.6236C102.597 18.8057 103.539 18.1589 104.311 17.3991C105.948 19.283 108.19 20.0345 109.702 19.327C111.743 18.3724 111.763 15.1049 111.491 13.4659C111.029 10.6693 109.252 9.77546 107.179 6.27974C106.024 4.32037 105.156 2.20565 104.6 0Z" fill="white"/>
<path d="M141.203 65.8117C140.878 65.864 139.765 66.0022 139.053 65.324C138.103 64.4218 138.557 62.7304 138.701 62.1841C139.497 59.218 142.628 57.6627 144.586 56.6914C146.718 55.6384 149.024 54.9823 151.391 54.7552C150.652 56.0984 150.13 57.5503 149.846 59.0568C149.191 62.5797 150.357 63.8713 149.513 66.2324C148.582 68.8427 145.661 71.4802 143.568 70.7287C142.12 70.2201 141.27 68.1478 141.203 65.8117Z" fill="white"/>
<path d="M128.681 68.8636C127.415 69.9207 126.755 69.9291 126.393 69.7721C125.123 69.2195 125.01 65.5375 126.364 62.7618C127.046 61.3635 127.942 60.5221 129.294 59.2724C130.891 57.7983 132.664 56.5278 134.574 55.4899C134.503 57.8004 134.689 60.1117 135.13 62.3809C135.777 65.6673 136.596 66.9211 136.039 68.9516C135.595 70.5696 134.165 73.092 132.139 72.9685C130.561 72.8722 129.014 71.1955 128.681 68.8636Z" fill="white"/>
<path d="M116.216 89.2749C116.03 88.4376 115.94 87.3533 116.538 86.6939C117.811 85.2935 121.495 86.5892 123.607 88.1027C126.46 90.152 127.398 93.2856 127.716 94.7006C125.786 94.4799 123.835 94.4995 121.909 94.7592C118.443 95.2323 117.024 96.237 114.928 95.4939C113.555 95.0041 111.738 93.7105 111.849 92.2075C111.948 90.8071 113.714 89.3942 116.216 89.2749Z" fill="white"/>
<path d="M80.8064 45.7123C79.3997 45.3376 79.0167 44.7034 78.889 44.3831C78.1563 42.5285 81.5474 39.8868 81.9012 39.6126C84.8924 37.2828 88.4781 37.1196 90.5044 37.2263C89.6012 38.6972 88.953 40.31 88.587 41.9968C88.0825 44.3727 88.5221 45.1974 87.7664 46.6522C86.7345 48.6366 84.1033 50.5791 82.37 49.7021C81.246 49.1264 80.7227 47.4602 80.8064 45.7123Z" fill="white"/>
<path d="M79.4375 0.194672C78.7747 2.09609 77.9094 3.92072 76.8565 5.63711C74.4744 9.51381 72.76 10.1627 72.2514 12.8316C71.7553 15.3854 72.5005 19.0339 74.5958 19.597C76.0611 19.9884 77.8989 18.7995 79.2512 16.9762C80.5071 18.3536 81.403 18.3452 81.7463 18.2971C83.5947 18.0375 84.5345 14.5418 84.6078 12.2057C84.6748 10.0036 83.9798 8.35834 83.0818 6.26299C82.1409 4.08787 80.9154 2.04727 79.4375 0.194672Z" fill="white"/>
<path d="M33.3713 22.3287C34.6714 23.7587 35.74 25.3831 36.5384 27.1431C37.5955 29.4918 37.3987 30.4337 38.6128 32.2674C39.3036 33.314 40.57 35.2273 42.8349 35.7087C43.0903 35.761 46.1967 36.3744 47.4107 34.3795C48.4197 32.7195 47.2747 30.6493 47.214 30.5468C48.9242 30.1386 49.4014 29.4415 49.5605 29.0208C50.2722 27.1473 47.124 24.2817 44.9072 22.9985C40.4277 20.3966 35.3076 21.7133 33.3713 22.3287Z" fill="white"/>
<path d="M32.5508 54.4328C33.1806 56.3144 33.6257 58.2528 33.88 60.2206C34.4263 64.4406 33.746 66.1173 35.092 68.041C36.3103 69.7826 38.9477 71.3902 40.6454 70.3875C41.7967 69.7156 42.3053 67.9782 42.0541 66.0859C43.9569 66.4397 44.6539 65.7615 44.79 65.617C45.9329 64.4071 44.6979 61.6168 43.578 60.1034C42.9165 59.2075 42.0709 58.4581 40.2937 57.445C37.8719 56.0718 35.2638 55.0572 32.5508 54.4328Z" fill="white"/>
<path d="M60.0812 69.6444C61.3166 69.1604 62.583 68.7597 63.872 68.445C65.6032 68.0264 66.4886 67.817 67.4306 67.9635C69.6222 68.3152 71.7657 70.1677 71.4977 71.4446C71.4015 71.8947 71.0163 72.2233 70.5976 72.4598C70.7358 72.5666 71.8536 73.45 71.7322 74.5719C71.6003 75.7839 70.1036 76.5542 68.967 76.6275C67.8304 76.7008 66.9554 76.0874 63.9097 73.2783C62.367 71.857 61.0713 70.6136 60.0812 69.6444Z" fill="white"/>
<path d="M67.3929 89.0802C67.5017 87.2821 66.8235 86.606 66.61 86.4218C65.1447 85.1512 62.0928 86.5913 60.5501 87.751C59.382 88.6281 58.6996 89.6349 57.8519 90.8783C57.0988 91.9862 56.4566 93.1655 55.9344 94.3992C58.0968 94.5771 59.8677 94.7655 61.0964 94.9057C65.6387 95.4269 67.2045 95.7995 69.0738 94.9057C69.4924 94.6964 71.504 93.7461 71.5375 92.3248C71.5689 91.0228 69.9425 89.5889 67.3929 89.0802Z" fill="white"/>
<path d="M120.302 3.98764C119.13 5.4625 118.189 7.10707 117.511 8.86491C116.559 11.3496 116.389 13.4345 116.235 15.3289C116.073 17.3091 115.992 18.3013 116.235 19.5509C116.789 22.4124 118.746 25.7658 120.536 25.5732C120.882 25.5355 121.763 25.3095 122.648 23.3837C124.471 25.1839 126.822 26.1216 128.591 25.4183C131.298 24.3424 131.67 19.821 130.703 16.97C129.991 14.8767 128.717 14.1629 126.167 11.4961C123.971 9.19105 122.007 6.67619 120.302 3.98764Z" fill="white"/>
<path d="M150.608 22.1717C148.691 21.9811 146.761 21.9615 144.841 22.1131C142.185 22.3224 140.236 22.4961 138.143 23.6181C136.338 24.5852 133.311 26.8543 133.841 28.7026C134.159 29.8141 135.641 30.3479 136.499 30.5865C135.57 32.5374 135.725 34.5763 136.813 35.5936C138.256 36.9416 140.858 36.0332 142.151 35.2796C144.466 33.9294 144.787 31.7881 147.175 27.499C148.199 25.6487 149.346 23.869 150.608 22.1717Z" fill="white"/>
<path d="M138.017 46.7694C136.801 48.4545 136.474 50.3928 137.274 51.5399C138.387 53.1371 141.37 52.7352 143.135 51.8518C145.32 50.7592 145.406 49.0553 147.866 46.6522C149.21 45.3478 150.772 44.2887 152.481 43.5228C150.419 42.2773 146.331 40.2804 141.833 41.3165C140.192 41.6954 136.541 42.9283 136.526 44.7348C136.526 45.1095 136.677 45.861 138.017 46.7694Z" fill="white"/>
<path d="M143.451 75.3548C143.2 74.5991 143.085 73.7807 143.491 73.2427C144.468 71.9491 148.037 72.8534 150.216 74.2203C153.417 76.2277 154.434 79.7443 154.752 81.1426C152.571 81.1412 150.392 81.2846 148.23 81.5717C145.299 81.9632 144.071 82.409 142.442 81.7287C141.272 81.2431 139.279 79.9223 139.47 78.2079C139.622 76.7782 141.264 75.4406 143.451 75.3548Z" fill="white"/>
<path d="M134.888 83.3699C132.202 82.9261 129.962 83.912 129.531 85.2873C129.003 86.9619 131.233 88.9609 132.815 89.8233C134.465 90.7213 135.601 90.4911 138.643 90.9579C140.458 91.2365 142.249 91.6564 143.999 92.2138C144.106 90.8469 144.19 87.2486 141.77 84.4332C140.146 82.5493 137.044 80.5963 135.649 81.5592C135.099 81.9318 134.927 82.6854 134.888 83.3699Z" fill="white"/>
<path d="M113.145 72.4599C112.785 72.2003 111.914 71.5053 111.933 70.622C111.964 69.2279 114.202 68.3487 115.414 68.0808C116.869 67.7584 118.064 68.0452 119.753 68.4722C121.077 68.805 122.362 69.2765 123.586 69.8789C122.273 70.872 121.044 71.9711 119.91 73.1653C117.93 75.2585 117.386 76.4203 115.883 76.7615C114.468 77.0838 112.383 76.6296 111.973 75.2753C111.705 74.3898 112.205 73.293 113.145 72.4599Z" fill="white"/>
<path d="M90.6655 63.1135C90.0815 63.8859 89.3049 64.6311 88.4739 64.562C86.6842 64.4134 85.5434 60.5618 85.3864 58.1483C85.0138 52.7875 88.9826 48.5822 90.5085 47.1211C91.3898 50.4368 92.8006 52.5447 93.9875 53.8865C95.2162 55.2722 96.2231 55.8625 96.9997 57.6397C97.3367 58.41 98.2556 60.5011 97.3514 62.6446C97.2048 62.9984 96.1394 65.5396 93.9498 65.5396C92.5976 65.5396 91.304 64.5767 90.6655 63.1135Z" fill="white"/>
<path d="M94.7663 32.9645C93.6888 35.4864 93.13 38.1994 93.123 40.9418C93.123 43.1355 93.1482 45.8861 95.0405 47.747C95.8903 48.5843 97.6131 49.7251 98.599 49.1139C99.0888 48.8103 99.25 48.1656 99.3023 47.6674C101.266 48.871 103.508 48.9087 104.699 47.8244C106.342 46.3298 105.383 43.2549 104.424 41.6849C103.422 40.0417 102.239 39.7612 100.006 38.1264C98.0233 36.6628 96.2592 34.9248 94.7663 32.9645Z" fill="white"/>
<path d="M119.167 27.1369C118.033 28.5184 116.168 31.2312 115.883 34.9196C115.799 36.0059 115.577 38.8967 117.329 40.902C117.706 41.3353 118.416 42.158 119.324 42.0366C120.452 41.8942 120.98 40.4311 120.999 40.362C122.295 41.9005 124.049 42.6646 125.263 42.1601C126.937 41.4672 127.122 38.5555 126.538 36.6863C125.966 34.863 124.746 34.3083 122.682 32.033C121.331 30.5377 120.152 28.8953 119.167 27.1369Z" fill="white"/>
<path d="M39.3162 92.0903C39.5177 90.3562 39.9296 88.653 40.5428 87.0184C41.2064 85.2454 41.6501 84.0648 42.7763 83.0287C44.6498 81.308 47.6975 80.6403 48.4951 81.6199C48.7044 81.8795 48.897 82.4216 48.4071 83.6734C50.1466 82.88 52.0787 83.3698 52.983 84.6718C53.3352 85.2116 53.5252 85.841 53.5304 86.4855C53.5356 87.13 53.3558 87.7625 53.0123 88.3078C52.7276 88.7411 52.2127 89.2582 48.4657 90.1562C46.5818 90.6083 45.2987 90.8134 43.4964 91.1735C41.6941 91.5335 40.2184 91.8726 39.3162 92.0903Z" fill="white"/>
<path d="M40.166 75.2062C40.4465 74.0737 40.1806 73.5316 39.9902 73.2699C39.0168 71.9658 35.722 72.5143 33.6267 74.0047C32.6408 74.7038 32.1007 75.4825 31.1336 76.8787C30.2332 78.1758 29.4666 79.561 28.8457 81.0128C30.1017 80.971 31.9856 80.9521 34.3007 81.1008C39.4961 81.4378 41.6501 82.3044 43.0923 80.9542C44.0217 80.0897 44.476 78.4863 43.915 77.201C43.354 75.9158 41.8678 75.1057 40.166 75.2062Z" fill="white"/>
<path d="M52.6606 72.148C53.9166 71.61 54.7539 70.3101 54.8313 68.7988C55.3107 69.2488 55.9805 69.7449 56.531 69.5607C57.7598 69.1421 57.9461 65.4768 57.1485 62.9607C55.6833 58.3283 50.4941 56.4088 49.1419 55.9525C49.201 57.8861 49.016 59.8195 48.5913 61.7068C48.0701 64.0094 47.5447 64.6144 47.507 66.4292C47.4819 67.4423 47.4066 70.6157 49.4726 71.8842C49.9465 72.1739 50.4817 72.3487 51.0353 72.3945C51.5889 72.4403 52.1455 72.3559 52.6606 72.148Z" fill="white"/>
<path d="M31.8955 43.1795C33.2446 45.2511 34.8511 47.1432 36.6765 48.8103C39.2428 51.1506 41.8447 53.5222 44.3315 52.8294C45.466 52.5112 46.8894 51.4709 47.0297 49.9532C47.1783 48.3373 45.8114 47.1818 45.6502 47.0499C46.1149 46.7129 46.946 46.0033 47.0004 45.0278C47.0967 43.2988 44.6601 41.9487 43.0693 41.4693C42.2675 41.2328 41.267 41.0946 38.4348 41.5572C36.2158 41.9253 34.0292 42.4677 31.8955 43.1795Z" fill="white"/>
<path d="M62.6914 40.6195C61.4982 42.1371 59.8236 42.922 58.5844 42.5034C56.8345 41.888 56.4912 39.016 56.9412 37.1656C57.3913 35.3152 58.5781 34.7081 60.55 32.4139C62.0288 30.6854 63.2984 28.7884 64.3325 26.7622C64.8809 27.8967 65.6533 29.5839 66.4739 31.6897C67.6984 34.8295 67.7821 35.715 67.7947 36.2948C67.8408 38.543 66.9176 41.6326 65.1844 41.8964C64.9186 41.9236 63.9829 41.9989 62.6914 40.6195Z" fill="white"/>
<path d="M62.9552 3.46014C61.2941 6.294 59.3696 8.96493 57.2071 11.4375C54.871 14.0834 53.0981 15.5486 52.4554 18.4792C52.2461 19.3939 51.8107 21.5667 53.0415 23.4632C53.2676 23.8128 54.1886 25.232 55.857 25.5167C57.5629 25.8076 59.4155 24.8029 60.4914 22.9943C60.797 23.6097 61.5945 25.0101 62.8379 25.165C65.1531 25.456 66.9951 21.1879 67.1186 20.8822C68.5839 17.4012 67.6461 14.0038 66.9616 11.5171C66.1527 8.6003 64.7927 5.86543 62.9552 3.46014Z" fill="white"/>
<path d="M81.7839 165.53C82.6567 167.548 84.1027 169.265 85.9424 170.469C87.7822 171.672 89.9348 172.31 92.1333 172.301C94.3319 172.293 96.4797 171.64 98.3103 170.422C100.141 169.205 101.574 167.477 102.432 165.452L165.185 165.216C165.853 164.766 166.403 164.162 166.789 163.455C167.044 162.804 166.998 162.199 166.946 161.343C166.895 160.657 166.818 159.551 166.437 158.685C165.826 157.289 164.528 156.707 162.761 155.83C161.329 155.118 159.228 154.032 156.582 152.506C156.621 154.423 156.66 156.339 156.699 158.254L98.2012 158.061L85.1791 158.178L26.7964 158.453L26.8738 152.591C24.7408 153.944 22.9595 154.917 21.7119 155.564C19.3235 156.803 17.7536 157.431 17.293 158.967C17.2449 159.127 17.1968 159.713 17.0984 160.883C16.9121 163.095 17.0063 163.543 17.1361 163.893C17.4212 164.604 17.9247 165.205 18.5741 165.611L81.7839 165.53Z" fill="white"/>
<path d="M27.0559 131.45C36.1427 132.762 43.5424 133.275 48.5829 133.503C57.7157 133.922 61.4292 133.503 68.4687 135.146C77.9637 137.374 82.5458 140.798 83.8583 141.828C87.0259 144.328 89.6987 147.398 91.7394 150.879C94.3081 147.253 97.4809 144.095 101.119 141.543C106.957 137.47 112.398 136.139 116.626 135.146C118.024 134.818 119.048 134.633 120.138 134.439C124.291 133.698 127.559 133.44 136.725 133.112C145.14 132.81 147.935 132.827 153.111 132.094C154.577 131.885 155.768 131.686 156.553 131.548C156.631 132.551 156.709 133.555 156.787 134.558L135.356 136.63C136.45 136.876 137.555 137.064 138.668 137.194C140.738 137.431 142.825 137.476 144.904 137.327C147.698 137.168 151.349 137.045 156.473 136.984L156.542 140.696C149.335 140.788 143.298 141.024 138.837 141.246C130.104 141.679 124.31 142.209 117.744 143.475C113.302 144.331 109.58 145.317 105.519 147.58C103.276 148.831 101.177 150.327 99.2625 152.039C106.21 149.103 113.463 146.952 120.888 145.625C128.156 144.338 134.027 144.137 139.658 143.951C146.687 143.71 152.615 143.915 156.982 144.185L156.864 158.497L98.0903 158.34C98.3561 162.179 95.2246 165.387 91.6012 165.302C88.0741 165.218 85.1394 162.036 85.422 158.304L26.5703 158.693C26.5968 156.663 26.6233 154.632 26.6499 152.602C26.6903 149.717 26.7287 146.834 26.765 143.951C34.1562 143.628 46.1799 143.465 58.7456 145.102C65.6533 146.002 70.3945 147.143 74.8259 148.644C78.1209 149.756 81.3341 151.097 84.4423 152.656C82.1566 150.526 79.6072 148.696 76.8564 147.214C75.1525 146.299 71.7091 144.627 63.9913 143.027C59.3862 142.075 54.8522 141.48 48.7399 141.072C41.5219 140.594 34.2832 140.509 27.0559 140.819C27.0183 139.563 26.9792 138.311 26.9387 137.064C31.1943 137.34 35.7848 137.449 40.6641 137.298C43.2012 137.22 45.6433 137.08 47.9905 136.88C44.0824 136.653 39.9357 136.277 35.5838 135.699C32.6365 135.31 29.8107 134.862 27.1083 134.357C27.0943 133.397 27.0769 132.428 27.0559 131.45Z" fill="#D9D9D9"/>
<path d="M111.307 151.57H150.568C150.732 151.646 150.871 151.767 150.968 151.92C151.066 152.072 151.118 152.249 151.118 152.43C151.118 152.611 151.066 152.788 150.968 152.941C150.871 153.093 150.732 153.215 150.568 153.291H111.307C111.118 153.239 110.952 153.127 110.833 152.972C110.714 152.816 110.65 152.626 110.65 152.43C110.65 152.235 110.714 152.044 110.833 151.889C110.952 151.733 111.118 151.621 111.307 151.57Z" fill="#D9D9D9"/>
<path d="M72.1633 151.482C72.4268 151.526 72.6661 151.663 72.8386 151.867C73.0112 152.071 73.1059 152.329 73.1059 152.597C73.1059 152.864 73.0112 153.123 72.8386 153.327C72.6661 153.531 72.4268 153.667 72.1633 153.711H33.7731C33.612 153.713 33.4523 153.682 33.3038 153.62C33.1554 153.557 33.0214 153.464 32.9104 153.348C32.7994 153.231 32.7137 153.093 32.6586 152.941C32.6035 152.79 32.5803 152.629 32.5904 152.468C32.6324 152.187 32.776 151.932 32.9941 151.75C33.2121 151.568 33.4894 151.473 33.7731 151.482" fill="#D9D9D9"/>
</g>
<path d="M4.50536 187V177.2H8.74736C9.62469 177.2 10.3807 177.345 11.0154 177.634C11.65 177.914 12.14 178.32 12.4854 178.852C12.8307 179.384 13.0034 180.019 13.0034 180.756C13.0034 181.484 12.8307 182.114 12.4854 182.646C12.14 183.169 11.65 183.57 11.0154 183.85C10.3807 184.13 9.62469 184.27 8.74736 184.27H5.76536L6.77336 183.276V187H4.50536ZM10.7354 187L8.28536 183.444H10.7074L13.1854 187H10.7354ZM6.77336 183.528L5.76536 182.464H8.62136C9.32136 182.464 9.84403 182.315 10.1894 182.016C10.5347 181.708 10.7074 181.288 10.7074 180.756C10.7074 180.215 10.5347 179.795 10.1894 179.496C9.84403 179.197 9.32136 179.048 8.62136 179.048H5.76536L6.77336 177.97V183.528ZM16.9863 181.148H21.7043V182.912H16.9863V181.148ZM17.1543 185.18H22.4883V187H14.9003V177.2H22.3063V179.02H17.1543V185.18ZM26.4929 181.61H31.1969V183.43H26.4929V181.61ZM26.6609 187H24.3929V177.2H31.7989V179.02H26.6609V187ZM37.7883 187.168C36.3976 187.168 35.3103 186.781 34.5263 186.006C33.7423 185.231 33.3503 184.125 33.3503 182.688V177.2H35.6183V182.604C35.6183 183.537 35.8096 184.209 36.1923 184.62C36.5749 185.031 37.1116 185.236 37.8023 185.236C38.4929 185.236 39.0296 185.031 39.4123 184.62C39.7949 184.209 39.9863 183.537 39.9863 182.604V177.2H42.2263V182.688C42.2263 184.125 41.8343 185.231 41.0503 186.006C40.2663 186.781 39.1789 187.168 37.7883 187.168ZM46.6535 181.148H51.3715V182.912H46.6535V181.148ZM46.8215 185.18H52.1555V187H44.5675V177.2H51.9735V179.02H46.8215V185.18ZM54.06 187V177.2H58.302C59.1794 177.2 59.9354 177.345 60.57 177.634C61.2047 177.914 61.6947 178.32 62.04 178.852C62.3854 179.384 62.558 180.019 62.558 180.756C62.558 181.484 62.3854 182.114 62.04 182.646C61.6947 183.169 61.2047 183.57 60.57 183.85C59.9354 184.13 59.1794 184.27 58.302 184.27H55.32L56.328 183.276V187H54.06ZM60.29 187L57.84 183.444H60.262L62.74 187H60.29ZM56.328 183.528L55.32 182.464H58.176C58.876 182.464 59.3987 182.315 59.744 182.016C60.0894 181.708 60.262 181.288 60.262 180.756C60.262 180.215 60.0894 179.795 59.744 179.496C59.3987 179.197 58.876 179.048 58.176 179.048H55.32L56.328 177.97V183.528ZM63.825 187V185.53L69.887 178.222L70.167 179.048H63.937V177.2H72.183V178.67L66.135 185.978L65.855 185.152H72.393V187H63.825ZM78.6118 187.168C77.8372 187.168 77.1185 187.042 76.4558 186.79C75.8025 186.538 75.2332 186.183 74.7478 185.726C74.2718 185.269 73.8985 184.732 73.6278 184.116C73.3665 183.5 73.2358 182.828 73.2358 182.1C73.2358 181.372 73.3665 180.7 73.6278 180.084C73.8985 179.468 74.2765 178.931 74.7618 178.474C75.2472 178.017 75.8165 177.662 76.4698 177.41C77.1232 177.158 77.8325 177.032 78.5978 177.032C79.3725 177.032 80.0818 177.158 80.7258 177.41C81.3792 177.662 81.9438 178.017 82.4198 178.474C82.9052 178.931 83.2832 179.468 83.5538 180.084C83.8245 180.691 83.9598 181.363 83.9598 182.1C83.9598 182.828 83.8245 183.505 83.5538 184.13C83.2832 184.746 82.9052 185.283 82.4198 185.74C81.9438 186.188 81.3792 186.538 80.7258 186.79C80.0818 187.042 79.3772 187.168 78.6118 187.168ZM78.5978 185.236C79.0365 185.236 79.4378 185.161 79.8018 185.012C80.1752 184.863 80.5018 184.648 80.7818 184.368C81.0618 184.088 81.2765 183.757 81.4258 183.374C81.5845 182.991 81.6638 182.567 81.6638 182.1C81.6638 181.633 81.5845 181.209 81.4258 180.826C81.2765 180.443 81.0618 180.112 80.7818 179.832C80.5112 179.552 80.1892 179.337 79.8158 179.188C79.4425 179.039 79.0365 178.964 78.5978 178.964C78.1592 178.964 77.7532 179.039 77.3798 179.188C77.0158 179.337 76.6938 179.552 76.4138 179.832C76.1338 180.112 75.9145 180.443 75.7558 180.826C75.6065 181.209 75.5318 181.633 75.5318 182.1C75.5318 182.557 75.6065 182.982 75.7558 183.374C75.9145 183.757 76.1292 184.088 76.3998 184.368C76.6798 184.648 77.0065 184.863 77.3798 185.012C77.7532 185.161 78.1592 185.236 78.5978 185.236ZM88.5412 187L92.9092 177.2H95.1492L99.5312 187H97.1512L93.5672 178.348H94.4632L90.8652 187H88.5412ZM90.7252 184.9L91.3272 183.178H96.3672L96.9832 184.9H90.7252ZM105.201 187.168C104.445 187.168 103.741 187.047 103.087 186.804C102.443 186.552 101.883 186.197 101.407 185.74C100.931 185.283 100.558 184.746 100.287 184.13C100.026 183.514 99.8952 182.837 99.8952 182.1C99.8952 181.363 100.026 180.686 100.287 180.07C100.558 179.454 100.931 178.917 101.407 178.46C101.893 178.003 102.457 177.653 103.101 177.41C103.745 177.158 104.45 177.032 105.215 177.032C106.065 177.032 106.83 177.181 107.511 177.48C108.202 177.769 108.781 178.199 109.247 178.768L107.791 180.112C107.455 179.729 107.082 179.445 106.671 179.258C106.261 179.062 105.813 178.964 105.327 178.964C104.87 178.964 104.45 179.039 104.067 179.188C103.685 179.337 103.353 179.552 103.073 179.832C102.793 180.112 102.574 180.443 102.415 180.826C102.266 181.209 102.191 181.633 102.191 182.1C102.191 182.567 102.266 182.991 102.415 183.374C102.574 183.757 102.793 184.088 103.073 184.368C103.353 184.648 103.685 184.863 104.067 185.012C104.45 185.161 104.87 185.236 105.327 185.236C105.813 185.236 106.261 185.143 106.671 184.956C107.082 184.76 107.455 184.466 107.791 184.074L109.247 185.418C108.781 185.987 108.202 186.421 107.511 186.72C106.83 187.019 106.06 187.168 105.201 187.168ZM109.413 187L113.781 177.2H116.021L120.403 187H118.023L114.439 178.348H115.335L111.737 187H109.413ZM111.597 184.9L112.199 183.178H117.239L117.855 184.9H111.597ZM121.52 187V177.2H125.972C127.036 177.2 127.974 177.405 128.786 177.816C129.598 178.217 130.232 178.782 130.69 179.51C131.147 180.238 131.376 181.101 131.376 182.1C131.376 183.089 131.147 183.953 130.69 184.69C130.232 185.418 129.598 185.987 128.786 186.398C127.974 186.799 127.036 187 125.972 187H121.52ZM123.788 185.138H125.86C126.513 185.138 127.078 185.017 127.554 184.774C128.039 184.522 128.412 184.167 128.674 183.71C128.944 183.253 129.08 182.716 129.08 182.1C129.08 181.475 128.944 180.938 128.674 180.49C128.412 180.033 128.039 179.683 127.554 179.44C127.078 179.188 126.513 179.062 125.86 179.062H123.788V185.138ZM135.272 181.148H139.99V182.912H135.272V181.148ZM135.44 185.18H140.774V187H133.186V177.2H140.592V179.02H135.44V185.18ZM142.679 187V177.2H144.555L148.727 184.116H147.733L151.835 177.2H153.697L153.725 187H151.597L151.583 180.462H151.975L148.699 185.964H147.677L144.331 180.462H144.807V187H142.679ZM156.15 187V177.2H158.418V187H156.15ZM165.534 187.168C164.778 187.168 164.073 187.047 163.42 186.804C162.776 186.552 162.216 186.197 161.74 185.74C161.264 185.283 160.89 184.746 160.62 184.13C160.358 183.514 160.228 182.837 160.228 182.1C160.228 181.363 160.358 180.686 160.62 180.07C160.89 179.454 161.264 178.917 161.74 178.46C162.225 178.003 162.79 177.653 163.434 177.41C164.078 177.158 164.782 177.032 165.548 177.032C166.397 177.032 167.162 177.181 167.844 177.48C168.534 177.769 169.113 178.199 169.58 178.768L168.124 180.112C167.788 179.729 167.414 179.445 167.004 179.258C166.593 179.062 166.145 178.964 165.66 178.964C165.202 178.964 164.782 179.039 164.4 179.188C164.017 179.337 163.686 179.552 163.406 179.832C163.126 180.112 162.906 180.443 162.748 180.826C162.598 181.209 162.524 181.633 162.524 182.1C162.524 182.567 162.598 182.991 162.748 183.374C162.906 183.757 163.126 184.088 163.406 184.368C163.686 184.648 164.017 184.863 164.4 185.012C164.782 185.161 165.202 185.236 165.66 185.236C166.145 185.236 166.593 185.143 167.004 184.956C167.414 184.76 167.788 184.466 168.124 184.074L169.58 185.418C169.113 185.987 168.534 186.421 167.844 186.72C167.162 187.019 166.392 187.168 165.534 187.168ZM175.766 187.168C174.991 187.168 174.273 187.042 173.61 186.79C172.957 186.538 172.387 186.183 171.902 185.726C171.426 185.269 171.053 184.732 170.782 184.116C170.521 183.5 170.39 182.828 170.39 182.1C170.39 181.372 170.521 180.7 170.782 180.084C171.053 179.468 171.431 178.931 171.916 178.474C172.401 178.017 172.971 177.662 173.624 177.41C174.277 177.158 174.987 177.032 175.752 177.032C176.527 177.032 177.236 177.158 177.88 177.41C178.533 177.662 179.098 178.017 179.574 178.474C180.059 178.931 180.437 179.468 180.708 180.084C180.979 180.691 181.114 181.363 181.114 182.1C181.114 182.828 180.979 183.505 180.708 184.13C180.437 184.746 180.059 185.283 179.574 185.74C179.098 186.188 178.533 186.538 177.88 186.79C177.236 187.042 176.531 187.168 175.766 187.168ZM175.752 185.236C176.191 185.236 176.592 185.161 176.956 185.012C177.329 184.863 177.656 184.648 177.936 184.368C178.216 184.088 178.431 183.757 178.58 183.374C178.739 182.991 178.818 182.567 178.818 182.1C178.818 181.633 178.739 181.209 178.58 180.826C178.431 180.443 178.216 180.112 177.936 179.832C177.665 179.552 177.343 179.337 176.97 179.188C176.597 179.039 176.191 178.964 175.752 178.964C175.313 178.964 174.907 179.039 174.534 179.188C174.17 179.337 173.848 179.552 173.568 179.832C173.288 180.112 173.069 180.443 172.91 180.826C172.761 181.209 172.686 181.633 172.686 182.1C172.686 182.557 172.761 182.982 172.91 183.374C173.069 183.757 173.283 184.088 173.554 184.368C173.834 184.648 174.161 184.863 174.534 185.012C174.907 185.161 175.313 185.236 175.752 185.236ZM1.63681 207V197.2H3.90481V207H1.63681ZM6.33056 207V197.2H8.20656L13.9886 204.256H13.0786V197.2H15.3186V207H13.4566L7.66056 199.944H8.57056V207H6.33056ZM22.4692 207.168C21.6945 207.168 20.9805 207.047 20.3272 206.804C19.6832 206.552 19.1185 206.197 18.6332 205.74C18.1572 205.283 17.7839 204.746 17.5132 204.13C17.2519 203.514 17.1212 202.837 17.1212 202.1C17.1212 201.363 17.2519 200.686 17.5132 200.07C17.7839 199.454 18.1619 198.917 18.6472 198.46C19.1325 198.003 19.7019 197.653 20.3552 197.41C21.0085 197.158 21.7272 197.032 22.5112 197.032C23.3792 197.032 24.1585 197.177 24.8492 197.466C25.5492 197.755 26.1372 198.175 26.6132 198.726L25.1572 200.07C24.8025 199.697 24.4152 199.421 23.9952 199.244C23.5752 199.057 23.1179 198.964 22.6232 198.964C22.1472 198.964 21.7132 199.039 21.3212 199.188C20.9292 199.337 20.5885 199.552 20.2992 199.832C20.0192 200.112 19.7999 200.443 19.6412 200.826C19.4919 201.209 19.4172 201.633 19.4172 202.1C19.4172 202.557 19.4919 202.977 19.6412 203.36C19.7999 203.743 20.0192 204.079 20.2992 204.368C20.5885 204.648 20.9245 204.863 21.3072 205.012C21.6992 205.161 22.1285 205.236 22.5952 205.236C23.0432 205.236 23.4772 205.166 23.8972 205.026C24.3265 204.877 24.7419 204.629 25.1432 204.284L26.4312 205.922C25.8992 206.323 25.2785 206.631 24.5692 206.846C23.8692 207.061 23.1692 207.168 22.4692 207.168ZM24.3592 205.628V201.946H26.4312V205.922L24.3592 205.628ZM29.4467 207.112C29.0734 207.112 28.7514 206.986 28.4807 206.734C28.2194 206.473 28.0887 206.141 28.0887 205.74C28.0887 205.339 28.2194 205.017 28.4807 204.774C28.7514 204.522 29.0734 204.396 29.4467 204.396C29.8294 204.396 30.1514 204.522 30.4127 204.774C30.674 205.017 30.8047 205.339 30.8047 205.74C30.8047 206.141 30.674 206.473 30.4127 206.734C30.1514 206.986 29.8294 207.112 29.4467 207.112ZM38.9556 207L35.7496 197.2H38.1016L40.8876 205.88H39.7116L42.6236 197.2H44.7236L47.5236 205.88H46.3896L49.2456 197.2H51.4156L48.2096 207H45.7736L43.2956 199.384H43.9396L41.3916 207H38.9556ZM52.7817 207V197.2H55.0497V207H52.7817ZM57.4755 207V197.2H59.7435V205.152H64.6575V207H57.4755ZM66.0247 207V197.2H68.2927V205.152H73.2067V207H66.0247ZM74.5739 207V197.2H76.8419V207H74.5739ZM77.9797 207L82.3477 197.2H84.5877L88.9697 207H86.5897L83.0057 198.348H83.9017L80.3037 207H77.9797ZM80.1637 204.9L80.7657 203.178H85.8057L86.4217 204.9H80.1637ZM90.0864 207V197.2H91.9624L96.1344 204.116H95.1404L99.2424 197.2H101.104L101.132 207H99.0044L98.9904 200.462H99.3824L96.1064 205.964H95.0844L91.7384 200.462H92.2144V207H90.0864ZM107.622 207V197.2H109.498L113.67 204.116H112.676L116.778 197.2H118.64L118.668 207H116.54L116.526 200.462H116.918L113.642 205.964H112.62L109.274 200.462H109.75V207H107.622ZM123.179 201.148H127.897V202.912H123.179V201.148ZM123.347 205.18H128.681V207H121.093V197.2H128.499V199.02H123.347V205.18ZM130.586 207V197.2H132.462L138.244 204.256H137.334V197.2H139.574V207H137.712L131.916 199.944H132.826V207H130.586ZM141.993 207V197.2H146.445C147.509 197.2 148.447 197.405 149.259 197.816C150.071 198.217 150.705 198.782 151.163 199.51C151.62 200.238 151.849 201.101 151.849 202.1C151.849 203.089 151.62 203.953 151.163 204.69C150.705 205.418 150.071 205.987 149.259 206.398C148.447 206.799 147.509 207 146.445 207H141.993ZM144.261 205.138H146.333C146.986 205.138 147.551 205.017 148.027 204.774C148.512 204.522 148.885 204.167 149.147 203.71C149.417 203.253 149.553 202.716 149.553 202.1C149.553 201.475 149.417 200.938 149.147 200.49C148.885 200.033 148.512 199.683 148.027 199.44C147.551 199.188 146.986 199.062 146.333 199.062H144.261V205.138ZM158.419 207.168C157.644 207.168 156.926 207.042 156.263 206.79C155.61 206.538 155.04 206.183 154.555 205.726C154.079 205.269 153.706 204.732 153.435 204.116C153.174 203.5 153.043 202.828 153.043 202.1C153.043 201.372 153.174 200.7 153.435 200.084C153.706 199.468 154.084 198.931 154.569 198.474C155.054 198.017 155.624 197.662 156.277 197.41C156.93 197.158 157.64 197.032 158.405 197.032C159.18 197.032 159.889 197.158 160.533 197.41C161.186 197.662 161.751 198.017 162.227 198.474C162.712 198.931 163.09 199.468 163.361 200.084C163.632 200.691 163.767 201.363 163.767 202.1C163.767 202.828 163.632 203.505 163.361 204.13C163.09 204.746 162.712 205.283 162.227 205.74C161.751 206.188 161.186 206.538 160.533 206.79C159.889 207.042 159.184 207.168 158.419 207.168ZM158.405 205.236C158.844 205.236 159.245 205.161 159.609 205.012C159.982 204.863 160.309 204.648 160.589 204.368C160.869 204.088 161.084 203.757 161.233 203.374C161.392 202.991 161.471 202.567 161.471 202.1C161.471 201.633 161.392 201.209 161.233 200.826C161.084 200.443 160.869 200.112 160.589 199.832C160.318 199.552 159.996 199.337 159.623 199.188C159.25 199.039 158.844 198.964 158.405 198.964C157.966 198.964 157.56 199.039 157.187 199.188C156.823 199.337 156.501 199.552 156.221 199.832C155.941 200.112 155.722 200.443 155.563 200.826C155.414 201.209 155.339 201.633 155.339 202.1C155.339 202.557 155.414 202.982 155.563 203.374C155.722 203.757 155.936 204.088 156.207 204.368C156.487 204.648 156.814 204.863 157.187 205.012C157.56 205.161 157.966 205.236 158.405 205.236ZM164.846 207V205.53L170.908 198.222L171.188 199.048H164.958V197.2H173.204V198.67L167.156 205.978L166.876 205.152H173.414V207H164.846ZM173.68 207L178.048 197.2H180.288L184.67 207H182.29L178.706 198.348H179.602L176.004 207H173.68ZM175.864 204.9L176.466 203.178H181.506L182.122 204.9H175.864Z" fill="white"/>
<defs>
<clipPath id="clip0_121_201">
<rect width="150" height="172.301" fill="white" transform="translate(17)"/>
</clipPath>
</defs>
</svg>
