<svg width="84" height="96" viewBox="0 0 84 96" fill="none" xmlns="http://www.w3.org/2000/svg">
<g clip-path="url(#clip0_121_164)">
<path d="M33.8924 49.2403C34.4187 49.743 34.6766 50.2993 35.0306 51.2883C35.6533 53.0312 36.1239 54.8242 36.4373 56.6474C37.0566 62.3036 35.5077 67.9839 32.1001 72.5531C33.7394 73.2523 35.2723 74.1764 36.6541 75.2985C38.8334 77.0761 40.5971 79.3049 41.8224 81.8297C44.1568 77.825 47.5703 74.5496 51.6773 72.3735C48.1688 68.7592 47.4655 65.6942 47.2826 64.3483C47.0658 62.8042 47.0728 60.2664 47.0752 59.4371C47.0752 58.1775 47.0845 57.1885 47.2498 55.9068C47.4365 54.4668 47.7744 53.0502 48.2579 51.6802C49.8521 48.8578 51.4124 48.0309 52.5494 47.8023C53.2023 47.6705 53.5563 47.7685 55.5749 47.5819C56.6709 47.4804 57.7775 47.3778 58.72 47.183C61.5438 46.5999 63.5261 45.0592 64.4638 44.3163C65.7798 43.2689 66.9184 42.0183 67.8363 40.6122C64.955 42.8748 62.4113 43.6504 60.5686 43.9233C56.2314 44.5659 53.1836 42.8293 49.531 44.7082C48.4806 45.2566 47.5461 46.001 46.7786 46.9008C47.1656 45.6923 47.6619 44.5213 48.2614 43.4019C48.9144 42.1809 50.7313 38.8721 54.4285 36.3331C55.8668 35.3453 55.5913 35.848 58.0717 34.3388C60.7479 32.706 62.5531 31.5875 63.9844 29.5454C64.3994 28.9529 65.418 27.4682 65.7802 25.4926C66.677 20.5942 62.8321 16.5227 62.2319 15.9057C62.5906 16.8597 64.0254 20.9884 62.1452 24.7951C61.7443 25.6057 61.2156 26.6763 60.0868 27.628C58.897 28.6298 57.8596 28.8129 56.0133 30.2416C55.5557 30.5964 55.1171 30.9748 54.6993 31.3753C55.5667 29.276 55.9887 27.0239 55.4331 24.7753C54.6723 21.6625 52.5658 20.642 52.2024 17.7776C51.9844 16.0585 52.4439 14.0653 54.0416 11.7643C52.8349 12.2352 51.8091 13.0742 51.1111 14.161C50.6287 14.9284 50.3284 15.7951 50.2331 16.6953C49.2808 16.3781 48.4034 15.8713 47.6542 15.206C45.3098 13.1067 45.1363 10.1536 45.114 9.45387C44.4728 12.7731 45.032 15.01 45.5958 16.3827C47.183 20.242 50.2741 20.8251 51.0712 24.7053C51.5401 27.004 50.913 29.0101 50.6774 29.76C50.0432 31.7765 48.973 33.1177 47.1795 35.3581C45.7048 37.2055 45.0566 37.637 43.7132 39.5567C43.0397 40.5211 42.4255 41.5251 41.874 42.5634C40.7333 40.7082 39.4904 38.9172 38.1511 37.1985C35.4221 33.6997 34.6813 33.5655 33.8138 31.6645C32.6475 29.1057 32.0555 25.1147 33.8572 22.2526C34.6555 20.9837 35.217 21.063 36.7045 18.8972C37.5661 17.6423 38.4148 16.4049 38.8509 14.6275C39.0783 13.6945 39.3831 11.8377 38.7184 9.44104C38.5543 11.8261 37.681 13.3679 37.1418 14.1481C36.3904 15.234 34.8618 16.8994 33.9885 16.5437C33.3766 16.2953 33.6368 15.2771 32.9335 14.0607C32.2302 12.8442 31.0263 12.2063 30.003 11.8377C30.7741 13.1695 31.3187 14.6189 31.6148 16.1273C31.8562 17.3484 32.0555 18.3573 31.7461 19.5259C31.2631 21.3453 29.9737 21.9296 29.1179 23.0993C28.1802 24.3881 27.5237 26.7148 29.03 31.2481C28.0628 30.8352 27.1262 30.3547 26.2273 29.8101C24.7432 28.9098 22.9392 27.5767 22.067 26.5445C19.1306 23.062 21.3579 16.5822 21.6286 15.8241C21.168 16.3862 16.5072 22.2386 18.5633 27.677C19.5878 30.3898 22.237 32.8763 24.6916 34.2082C26.1874 35.0187 27.4042 35.287 29.3371 36.7425C29.6888 37.0084 30.9067 37.9263 32.5783 39.9241C34.368 42.0764 35.8966 44.431 37.1324 46.9393C35.7317 45.7722 34.108 44.8993 32.3591 44.3735C28.805 43.3238 26.7055 44.4178 23.2053 43.9373C21.3297 43.6795 18.6758 42.9203 15.6281 40.5819C18.2187 44.5099 20.8386 45.9666 22.8114 46.5521C27.4428 47.9271 30.2128 48.0776 30.2128 48.0776C31.1611 48.1149 32.7413 48.1405 33.8924 49.2403Z" fill="#DBAA16"/>
<path d="M49.0562 0C48.1676 0.74292 46.1936 2.62413 45.8912 5.44653C45.6849 7.38372 46.2264 10.1338 47.4291 10.3764C47.9344 10.4779 48.4619 10.1175 48.8944 9.69412C49.8111 10.7438 51.0665 11.1625 51.9129 10.7683C53.0558 10.2364 53.0675 8.41588 52.9151 7.50268C52.6561 5.94453 51.6608 5.44653 50.5003 3.49884C49.8535 2.40715 49.3672 1.22891 49.0562 0Z" fill="white"/>
<path d="M69.5535 36.6678C69.3718 36.697 68.7482 36.774 68.3496 36.3961C67.8174 35.8934 68.0718 34.9511 68.1527 34.6467C68.5981 32.9941 70.3518 32.1275 71.4478 31.5864C72.6418 30.9997 73.9331 30.6341 75.2587 30.5076C74.8449 31.256 74.5529 32.0649 74.3936 32.9043C74.0267 34.8671 74.6796 35.5867 74.2072 36.9023C73.6856 38.3566 72.0503 39.8261 70.8781 39.4074C70.0669 39.124 69.591 37.9694 69.5535 36.6678Z" fill="white"/>
<path d="M62.5413 38.3683C61.8321 38.9573 61.4628 38.9619 61.26 38.8744C60.5485 38.5665 60.4852 36.5151 61.2436 34.9686C61.6258 34.1895 62.1275 33.7207 62.8847 33.0244C63.7789 32.2031 64.7719 31.4952 65.8411 30.9169C65.8013 32.2043 65.9059 33.492 66.1529 34.7563C66.5151 36.5874 66.9734 37.286 66.6616 38.4173C66.4131 39.3188 65.6125 40.7242 64.4778 40.6554C63.5939 40.6017 62.7277 39.6675 62.5413 38.3683Z" fill="white"/>
<path d="M55.5608 49.7407C55.4564 49.2742 55.406 48.67 55.7413 48.3026C56.454 47.5224 58.5171 48.2443 59.6999 49.0875C61.2976 50.2293 61.8227 51.9753 62.0009 52.7637C60.9198 52.6407 59.8276 52.6517 58.7492 52.7963C56.808 53.0599 56.0132 53.6197 54.8398 53.2057C54.0709 52.9328 53.0534 52.212 53.1155 51.3746C53.1706 50.5944 54.16 49.8071 55.5608 49.7407Z" fill="white"/>
<path d="M35.7315 25.4692C34.9437 25.2605 34.7292 24.9071 34.6577 24.7286C34.2474 23.6953 36.1464 22.2235 36.3445 22.0707C38.0196 20.7726 40.0277 20.6816 41.1624 20.7411C40.6566 21.5606 40.2936 22.4593 40.0886 23.3991C39.8061 24.7228 40.0523 25.1823 39.6291 25.9929C39.0512 27.0985 37.5777 28.1808 36.6071 27.6922C35.9776 27.3714 35.6846 26.4431 35.7315 25.4692Z" fill="white"/>
<path d="M34.9649 0.108459C34.5938 1.16786 34.1092 2.18448 33.5196 3.14079C32.1856 5.30074 31.2256 5.66229 30.9407 7.14929C30.6629 8.57215 31.0802 10.605 32.2536 10.9187C33.0741 11.1368 34.1033 10.4744 34.8606 9.45853C35.5639 10.2259 36.0656 10.2213 36.2579 10.1944C37.293 10.0498 37.8193 8.10214 37.8603 6.80057C37.8978 5.57365 37.5086 4.65695 37.0058 3.4895C36.4789 2.27761 35.7926 1.14066 34.9649 0.108459Z" fill="white"/>
<path d="M9.16785 12.4407C9.89589 13.2375 10.4943 14.1425 10.9414 15.1232C11.5334 16.4317 11.4232 16.9566 12.1031 17.9782C12.4899 18.5614 13.1991 19.6273 14.4674 19.8956C14.6105 19.9247 16.35 20.2665 17.0299 19.155C17.5949 18.2301 16.9537 17.0767 16.9197 17.0195C17.8774 16.7921 18.1447 16.4037 18.2338 16.1693C18.6323 15.1255 16.8693 13.5289 15.6279 12.8139C13.1194 11.3642 10.2521 12.0978 9.16785 12.4407Z" fill="white"/>
<path d="M8.70837 30.3279C9.06105 31.3763 9.31035 32.4563 9.45273 33.5527C9.75868 35.9039 9.37771 36.8381 10.1314 37.9099C10.8137 38.8803 12.2907 39.776 13.2413 39.2173C13.8861 38.843 14.1709 37.8749 14.0302 36.8206C15.0958 37.0177 15.4861 36.6398 15.5623 36.5594C16.2024 35.8853 15.5108 34.3306 14.8836 33.4874C14.5132 32.9882 14.0396 32.5707 13.0444 32.0062C11.6882 31.2411 10.2277 30.6758 8.70837 30.3279Z" fill="white"/>
<path d="M24.1254 38.8033C24.8172 38.5336 25.5264 38.3103 26.2483 38.135C27.2177 37.9018 27.7135 37.7851 28.241 37.8668C29.4683 38.0627 30.6687 39.0949 30.5186 39.8063C30.4647 40.057 30.249 40.2401 30.0146 40.3719C30.092 40.4314 30.7179 40.9236 30.6499 41.5487C30.5761 42.224 29.7379 42.6532 29.1014 42.694C28.4649 42.7348 27.9749 42.3931 26.2694 40.828C25.4054 40.036 24.6798 39.3433 24.1254 38.8033Z" fill="white"/>
<path d="M28.2199 49.6322C28.2809 48.6304 27.9011 48.2537 27.7815 48.151C26.961 47.4431 25.2519 48.2455 24.388 48.8916C23.7339 49.3803 23.3517 49.9413 22.877 50.634C22.4553 51.2513 22.0956 51.9084 21.8032 52.5957C23.0141 52.6949 24.0058 52.7998 24.6939 52.878C27.2376 53.1684 28.1144 53.376 29.1612 52.878C29.3957 52.7613 30.5222 52.2318 30.5409 51.4399C30.5585 50.7145 29.6477 49.9156 28.2199 49.6322Z" fill="white"/>
<path d="M57.8489 2.22177C57.1926 3.04351 56.6657 3.9598 56.2863 4.9392C55.753 6.32358 55.658 7.48519 55.5713 8.54068C55.481 9.64398 55.4353 10.1968 55.5713 10.8931C55.8819 12.4874 56.9779 14.3557 57.9802 14.2484C58.1736 14.2275 58.6671 14.1015 59.163 13.0285C60.184 14.0315 61.5004 14.554 62.4909 14.1621C64.0066 13.5627 64.2152 11.0435 63.6737 9.45504C63.2751 8.28876 62.5612 7.89106 61.1335 6.40522C59.9038 5.12092 58.8037 3.71973 57.8489 2.22177Z" fill="white"/>
<path d="M74.8203 12.3532C73.7469 12.2471 72.6661 12.2362 71.5908 12.3206C70.1033 12.4372 69.0119 12.534 67.8397 13.1591C66.8293 13.698 65.1342 14.9622 65.4308 15.992C65.609 16.6113 66.4389 16.9087 66.9195 17.0417C66.3991 18.1287 66.4858 19.2646 67.0954 19.8314C67.903 20.5825 69.3601 20.0763 70.0845 19.6565C71.381 18.9042 71.5603 17.7111 72.8978 15.3214C73.4715 14.2905 74.1137 13.2989 74.8203 12.3532Z" fill="white"/>
<path d="M67.7694 26.0582C67.0884 26.997 66.9055 28.077 67.3533 28.7161C67.9769 29.606 69.6473 29.3821 70.6355 28.8899C71.8593 28.2811 71.9074 27.3318 73.2847 25.9929C74.0375 25.2661 74.9123 24.676 75.8695 24.2493C74.7148 23.5554 72.4255 22.4427 69.9064 23.02C68.9874 23.2311 66.943 23.9181 66.9348 24.9246C66.9348 25.1333 67.0192 25.552 67.7694 26.0582Z" fill="white"/>
<path d="M70.8125 41.9849C70.6718 41.5639 70.6073 41.1079 70.8348 40.8081C71.3822 40.0874 73.3808 40.5912 74.6011 41.3528C76.3934 42.4712 76.9631 44.4306 77.1413 45.2097C75.9198 45.2089 74.6995 45.2887 73.4887 45.4488C71.8476 45.6669 71.1595 45.9153 70.2475 45.5362C69.5922 45.2657 68.4763 44.5297 68.5829 43.5745C68.6685 42.778 69.5875 42.0327 70.8125 41.9849Z" fill="white"/>
<path d="M66.017 46.4506C64.513 46.2033 63.2587 46.7527 63.0173 47.5189C62.7219 48.4519 63.9703 49.5657 64.8565 50.0462C65.7802 50.5466 66.4167 50.4183 68.1199 50.6784C69.1366 50.8336 70.1396 51.0676 71.1196 51.3781C71.1794 50.6166 71.2263 48.6117 69.8712 47.0431C68.9616 45.9934 67.2243 44.9053 66.4437 45.4418C66.1354 45.6494 66.0392 46.0692 66.017 46.4506Z" fill="white"/>
<path d="M53.8411 40.3719C53.6395 40.2273 53.1519 39.8401 53.1624 39.3479C53.18 38.5712 54.4331 38.0814 55.1118 37.9321C55.9265 37.7525 56.5959 37.9122 57.5418 38.1502C58.283 38.3356 59.0024 38.5983 59.6882 38.9339C58.9528 39.4872 58.2644 40.0996 57.6297 40.765C56.5208 41.9313 56.216 42.5785 55.3744 42.7686C54.582 42.9482 53.4144 42.6952 53.1847 41.9406C53.0346 41.4472 53.3148 40.8361 53.8411 40.3719Z" fill="white"/>
<path d="M41.2527 35.1645C40.9256 35.5949 40.4907 36.0101 40.0254 35.9716C39.0231 35.8888 38.3843 33.7428 38.2963 32.3981C38.0877 29.4112 40.3102 27.0682 41.1648 26.2541C41.6583 28.1015 42.4483 29.276 43.113 30.0235C43.8011 30.7956 44.3649 31.1245 44.7998 32.1147C44.9885 32.5439 45.5031 33.709 44.9967 34.9033C44.9147 35.1004 44.318 36.5162 43.0919 36.5162C42.3346 36.5162 41.6102 35.9797 41.2527 35.1645Z" fill="white"/>
<path d="M43.5491 18.3666C42.9457 19.7717 42.6328 21.2833 42.6289 22.8113C42.6289 24.0335 42.643 25.566 43.7027 26.6028C44.1786 27.0694 45.1433 27.705 45.6954 27.3644C45.9697 27.1953 46.06 26.8361 46.0893 26.5585C47.1888 27.2291 48.4443 27.2501 49.1113 26.646C50.0315 25.8133 49.4946 24.1 48.9577 23.2253C48.3962 22.3098 47.7339 22.1535 46.4832 21.2426C45.3731 20.4272 44.3852 19.4588 43.5491 18.3666Z" fill="white"/>
<path d="M57.2136 15.1196C56.5783 15.8894 55.5338 17.4009 55.3744 19.4559C55.3275 20.0612 55.2033 21.6718 56.1844 22.7891C56.3954 23.0305 56.7928 23.4889 57.3015 23.4212C57.9334 23.3419 58.2288 22.5267 58.2393 22.4882C58.9649 23.3454 59.9472 23.7711 60.6271 23.49C61.5649 23.104 61.6681 21.4817 61.341 20.4402C61.021 19.4244 60.3376 19.1153 59.1818 17.8476C58.4251 17.0144 57.7649 16.0994 57.2136 15.1196Z" fill="white"/>
<path d="M12.4969 51.3093C12.6098 50.3431 12.8405 49.3942 13.1839 48.4834C13.5555 47.4956 13.804 46.8378 14.4346 46.2605C15.4838 45.3018 17.1905 44.9298 17.6371 45.4756C17.7543 45.6202 17.8622 45.9223 17.5879 46.6197C18.562 46.1777 19.644 46.4506 20.1504 47.176C20.3476 47.4767 20.454 47.8274 20.4569 48.1865C20.4599 48.5456 20.3591 48.898 20.1668 49.2018C20.0074 49.4433 19.719 49.7313 17.6207 50.2317C16.5657 50.4836 15.8471 50.5979 14.8379 50.7985C13.8286 50.9991 13.0022 51.188 12.4969 51.3093Z" fill="white"/>
<path d="M12.9729 41.9021C13.13 41.2711 12.9811 40.9691 12.8744 40.8233C12.3294 40.0967 10.4843 40.4023 9.31089 41.2327C8.75878 41.6222 8.45635 42.0561 7.91478 42.834C7.41053 43.5567 6.98125 44.3284 6.63354 45.1374C7.33688 45.114 8.39187 45.1035 9.68835 45.1864C12.5978 45.3741 13.804 45.857 14.6117 45.1047C15.1321 44.623 15.3865 43.7297 15.0723 43.0136C14.7582 42.2975 13.9259 41.8461 12.9729 41.9021Z" fill="white"/>
<path d="M19.9699 40.1982C20.6733 39.8984 21.1421 39.1742 21.1855 38.3321C21.454 38.5829 21.8291 38.8593 22.1374 38.7566C22.8255 38.5234 22.9298 36.4812 22.4832 35.0794C21.6626 32.4984 18.7567 31.4289 17.9994 31.1747C18.0325 32.252 17.9289 33.3292 17.6911 34.3808C17.3993 35.6637 17.105 36.0007 17.0839 37.0119C17.0699 37.5764 17.0277 39.3444 18.1846 40.0512C18.45 40.2126 18.7497 40.31 19.0598 40.3355C19.3698 40.361 19.6815 40.314 19.9699 40.1982Z" fill="white"/>
<path d="M8.34143 24.058C9.0969 25.2123 9.99654 26.2664 11.0188 27.1953C12.4559 28.4992 13.913 29.8206 15.3056 29.4346C15.9409 29.2573 16.738 28.6777 16.8166 27.8321C16.8998 26.9317 16.1343 26.2879 16.0441 26.2145C16.3043 26.0267 16.7697 25.6313 16.8002 25.0878C16.8541 24.1245 15.4896 23.3722 14.5987 23.1052C14.1498 22.9734 13.5895 22.8964 12.0034 23.1542C10.7608 23.3592 9.53632 23.6614 8.34143 24.058Z" fill="white"/>
<path d="M25.5871 22.6317C24.919 23.4772 23.9812 23.9146 23.2872 23.6813C22.3073 23.3384 22.115 21.7383 22.3671 20.7073C22.6191 19.6763 23.2837 19.3381 24.388 18.0598C25.2161 17.0968 25.9271 16.0398 26.5062 14.9109C26.8133 15.543 27.2458 16.483 27.7053 17.6563C28.3911 19.4057 28.438 19.8991 28.445 20.2221C28.4708 21.4747 27.9538 23.1961 26.9832 23.3431C26.8344 23.3583 26.3104 23.4002 25.5871 22.6317Z" fill="white"/>
<path d="M25.7348 1.92786C24.8046 3.50677 23.7269 4.99492 22.5159 6.37255C21.2077 7.84673 20.2149 8.66312 19.855 10.2959C19.7378 10.8056 19.4939 12.0162 20.1832 13.0728C20.3098 13.2676 20.8256 14.0583 21.7598 14.2169C22.7152 14.3791 23.7526 13.8192 24.3551 12.8116C24.5263 13.1545 24.9729 13.9347 25.6692 14.021C26.9657 14.1831 27.9972 11.8051 28.0664 11.6348C28.8869 9.69528 28.3618 7.80241 27.9785 6.41687C27.5254 4.79176 26.7639 3.26799 25.7348 1.92786Z" fill="white"/>
<path d="M36.2789 92.2271C36.7677 93.3514 37.5775 94.3082 38.6077 94.9789C39.638 95.6496 40.8434 96.0046 42.0746 96C43.3058 95.9954 44.5086 95.6314 45.5337 94.953C46.5589 94.2747 47.3614 93.3118 47.8417 92.1839L82.9836 92.0521C83.3576 91.8015 83.6656 91.4651 83.8815 91.0713C84.0245 90.7086 83.9988 90.3715 83.9695 89.8945C83.9413 89.512 83.8979 88.8962 83.6846 88.4134C83.3423 87.6354 82.6155 87.3112 81.6262 86.8225C80.8244 86.426 79.6475 85.8207 78.1658 84.9705C78.1877 86.0388 78.2096 87.1063 78.2315 88.1731L45.4726 88.0658L38.1803 88.1311L5.48592 88.2839L5.5293 85.0183C4.33481 85.7717 3.33725 86.314 2.6386 86.6744C1.3011 87.3649 0.42194 87.7148 0.164052 88.5708C0.137091 88.6594 0.110131 88.986 0.0550364 89.6379C-0.049291 90.8707 0.00345794 91.1203 0.0761355 91.3151C0.235791 91.7111 0.517799 92.0464 0.881451 92.2726L36.2789 92.2271Z" fill="white"/>
<path d="M5.63133 73.2389C10.7199 73.9701 14.8637 74.2559 17.6864 74.383C22.8008 74.6163 24.8803 74.383 28.8225 75.2985C34.1397 76.5395 36.7057 78.4475 37.4406 79.0213C39.2145 80.4143 40.7113 82.1246 41.8541 84.0643C43.2925 82.0439 45.0693 80.2844 47.1068 78.8627C50.3761 76.5931 53.4227 75.8513 55.7906 75.2985C56.5736 75.1154 57.1468 75.0128 57.7575 74.9043C60.0832 74.4915 61.9131 74.348 67.0462 74.1649C71.7585 73.997 73.3234 74.0063 76.2223 73.5981C77.0429 73.4815 77.7099 73.3707 78.1495 73.2937C78.1932 73.8527 78.237 74.4118 78.2807 74.9708L66.2796 76.1254C66.8918 76.2622 67.5108 76.3669 68.134 76.4392C69.2932 76.5714 70.4622 76.5964 71.6261 76.5138C73.191 76.4252 75.2353 76.3564 78.1049 76.3225L78.1436 78.3903C74.1076 78.4417 70.727 78.5734 68.229 78.6971C63.3385 78.9385 60.0938 79.2336 56.4165 79.9392C53.9291 80.4162 51.8449 80.9655 49.5708 82.2262C48.3144 82.9234 47.1394 83.7565 46.067 84.7104C49.9576 83.0748 54.0194 81.8762 58.1772 81.1369C62.2471 80.4197 65.5352 80.3077 68.6885 80.2039C72.6248 80.0698 75.9445 80.1841 78.3898 80.3345L78.3241 88.3084L45.4106 88.2209C45.5594 90.3599 43.8058 92.1478 41.7767 92.1C39.8015 92.0533 38.158 90.2806 38.3163 88.2011L5.35938 88.418C5.37422 87.2867 5.38907 86.1554 5.40392 85.0241C5.42658 83.417 5.44807 81.8103 5.46839 80.2039C9.60749 80.0243 16.3407 79.9333 23.3775 80.8454C27.2459 81.3469 29.9009 81.9825 32.3825 82.8187C34.2277 83.4384 36.0271 84.1855 37.7677 85.0545C36.4877 83.8673 35.06 82.8482 33.5196 82.0221C32.5654 81.5125 30.6371 80.5806 26.3151 79.6896C23.7362 79.1589 21.1972 78.8277 17.7743 78.6003C13.7323 78.3337 9.67857 78.2866 5.63133 78.4592C5.61023 77.7594 5.58835 77.062 5.56568 76.3668C7.9488 76.5208 10.5195 76.5814 13.2519 76.4975C14.6727 76.4539 16.0402 76.3762 17.3547 76.2642C15.1662 76.1383 12.844 75.9283 10.4069 75.6064C8.75646 75.3895 7.17397 75.1399 5.66063 74.8588C5.65282 74.3239 5.64305 73.7839 5.63133 73.2389Z" fill="#D9D9D9"/>
<path d="M52.812 84.4492H74.7981C74.89 84.4915 74.9678 84.5592 75.0223 84.6441C75.0769 84.7291 75.1058 84.8277 75.1058 84.9285C75.1058 85.0293 75.0769 85.128 75.0223 85.2129C74.9678 85.2978 74.89 85.3655 74.7981 85.4079H52.812C52.7063 85.3792 52.613 85.3167 52.5465 85.2301C52.48 85.1435 52.444 85.0375 52.444 84.9285C52.444 84.8195 52.48 84.7135 52.5465 84.6269C52.613 84.5403 52.7063 84.4778 52.812 84.4492Z" fill="#D9D9D9"/>
<path d="M30.8914 84.4002C31.039 84.4249 31.173 84.5009 31.2697 84.6146C31.3663 84.7282 31.4193 84.8723 31.4193 85.0212C31.4193 85.1701 31.3663 85.3142 31.2697 85.4279C31.173 85.5416 31.039 85.6175 30.8914 85.6423H9.39296C9.30276 85.6434 9.21329 85.626 9.13016 85.5912C9.04703 85.5563 8.97203 85.5047 8.90985 85.4397C8.84768 85.3747 8.79967 85.2976 8.76883 85.2132C8.738 85.1289 8.725 85.0391 8.73066 84.9495C8.75415 84.7931 8.83459 84.6507 8.9567 84.5494C9.07881 84.4481 9.23407 84.395 9.39296 84.4002" fill="#D9D9D9"/>
</g>
<defs>
<clipPath id="clip0_121_164">
<rect width="84" height="96" fill="white"/>
</clipPath>
</defs>
</svg>
